<?xml version="1.0" standalone="no"?>
<!DOCTYPE svg PUBLIC "-//W3C//DTD SVG 1.1//EN" "http://www.w3.org/Graphics/SVG/1.1/DTD/svg11.dtd" >
<svg xmlns="http://www.w3.org/2000/svg">
<metadata>
This is a custom SVG webfont generated by Fontspring.
</metadata>
<defs>
<font id="NovecentowideNormal" horiz-adv-x="1667" >
<font-face units-per-em="2048" ascent="1741" descent="-307" />
<missing-glyph horiz-adv-x="512" />
<glyph unicode=" "  horiz-adv-x="512" />
<glyph unicode="&#x09;" horiz-adv-x="512" />
<glyph unicode="&#xa0;" horiz-adv-x="512" />
<glyph unicode="!" horiz-adv-x="548" d="M190 0v322h168v-322h-168zM190 467v967h168v-967h-168z" />
<glyph unicode="&#x22;" horiz-adv-x="892" d="M190 989v445h164v-445h-164zM539 989v445h163v-445h-163z" />
<glyph unicode="#" horiz-adv-x="1757" d="M59 369l76 141h236l221 432h-240l76 141h238l178 351h160l-177 -351h451l178 351h158l-176 -351h262l-74 -141h-260l-217 -432h258l-74 -141h-254l-186 -369h-170l188 369h-444l-186 -369h-170l188 369h-240zM539 510h444l221 432h-448z" />
<glyph unicode="$" horiz-adv-x="1220" d="M72 393l161 43q16 -133 120 -223t272 -90q156 0 249 73.5t93 188.5q0 43 -12.5 79t-43 64.5t-56.5 48t-78 40t-80.5 29.5t-92 27.5t-88.5 26.5q-70 23 -107.5 36.5t-103 46t-101.5 67.5t-64.5 93t-28.5 130q0 152 115.5 257.5t301.5 127.5v160h166v-162q164 -23 280 -124 t146 -253l-159 -43q-23 129 -122.5 204t-236.5 75q-143 0 -232 -63.5t-89 -170.5q0 -43 21.5 -78.5t50 -59t81.5 -46.5t94 -36l107 -34q23 -6 35 -10q78 -23 128 -41t122.5 -55t115.5 -78t75 -107.5t32 -146.5q0 -166 -123 -280.5t-326 -133.5v-159h-166v161 q-186 23 -305.5 135.5t-150.5 280.5z" />
<glyph unicode="%" horiz-adv-x="1826" d="M29 1032q0 178 101 298t267 120t267.5 -120t101.5 -298t-101.5 -297t-267.5 -119t-267 119t-101 297zM152 1032q0 -123 67.5 -209t178 -86t178 86t67.5 209q0 125 -67.5 211t-178 86t-178 -86t-67.5 -211zM362 0l979 1434h121l-977 -1434h-123zM1061 399.5 q0 178.5 101.5 298t267 119.5t267 -119.5t101.5 -298t-101.5 -297t-267 -118.5t-267 118.5t-101.5 297zM1184 399q0 -123 67.5 -209t178 -86t178 86t67.5 209q0 125 -67.5 211t-178 86t-178 -86t-67.5 -211z" />
<glyph unicode="&#x26;" horiz-adv-x="1452" d="M90 401q0 143 90 234.5t219 105.5v2q-106 16 -192 99.5t-86 218.5q0 160 118.5 280.5t352.5 120.5q195 0 330 -107.5t172 -301.5l-146 -41q-74 305 -354 305q-86 0 -148.5 -26.5t-93 -68.5t-44 -83t-13.5 -82q0 -106 84 -177t237 -71h799v-135h-266v-168 q0 -535 -541 -535q-231 0 -374.5 118.5t-143.5 311.5zM254 403q0 -127 99.5 -205.5t254.5 -78.5q207 0 294 98t87 295v162h-381q-162 0 -258 -69t-96 -202z" />
<glyph unicode="'" horiz-adv-x="544" d="M190 989v445h164v-445h-164z" />
<glyph unicode="(" horiz-adv-x="737" d="M90 715q0 821 533 1011l49 -155q-211 -74 -312.5 -280t-101.5 -576.5t101.5 -577.5t312.5 -280l-49 -154q-88 31 -164 81t-144.5 133t-118 192.5t-78 264.5t-28.5 341z" />
<glyph unicode=")" horiz-adv-x="741" d="M70 -143l49 -154q88 31 163.5 81t144.5 133t118 192.5t77.5 264t28.5 341.5q0 821 -532 1011l-49 -155q211 -74 312 -280t101 -576.5t-101 -577t-312 -280.5z" />
<glyph unicode="*" horiz-adv-x="1071" d="M190 1139l37 108l250 -82v269h113v-269l254 82l35 -108l-256 -76l161 -219l-90 -68l-159 225l-156 -225l-92 68l159 219z" />
<glyph unicode="+" horiz-adv-x="1429" d="M242 657v142h397v393h152v-393h399v-142h-397v-399h-152v399h-399z" />
<glyph unicode="," horiz-adv-x="448" d="M96 -272q47 43 81 111.5t34 127.5l20 10l-20 3q-33 0 -61.5 26.5t-28.5 69.5t31.5 71.5t74.5 28.5t73 -33.5t30 -87.5q0 -88 -46 -175t-114 -152h-74z" />
<glyph unicode="-" horiz-adv-x="1329" d="M190 657v142h949v-142h-949z" />
<glyph unicode="." horiz-adv-x="448" d="M123 74q0 43 29.5 72.5t72.5 29.5q41 0 71 -30.5t30 -71.5q0 -43 -30 -72t-71 -29q-43 0 -72.5 30t-29.5 71z" />
<glyph unicode="/" horiz-adv-x="966" d="M37 0l733 1434h160l-721 -1434h-172z" />
<glyph unicode="0" horiz-adv-x="1470" d="M90 716.5q0 313.5 174 529.5t471 216q199 0 348.5 -104.5t223 -272t73.5 -368.5t-73.5 -369t-223 -272.5t-348.5 -104.5q-297 0 -471 216t-174 529.5zM262 717q0 -248 123 -415t350 -167q225 0 349 167t124 415t-123.5 414.5t-349.5 166.5q-227 0 -350 -166.5 t-123 -414.5z" />
<glyph unicode="1" horiz-adv-x="841" d="M90 993l442 441h119v-1434h-168v973q0 43 2 98t2 88l2 31h-2l-20 -21l-46 -51q-28 -31 -44 -47l-182 -180z" />
<glyph unicode="2" horiz-adv-x="1175" d="M92 1081q55 186 191.5 283.5t330.5 97.5q213 0 349.5 -127t136.5 -321q0 -43 -7.5 -84t-15.5 -73t-29.5 -69.5t-32.5 -59t-45 -56.5t-44.5 -48.5t-52.5 -48t-50 -40.5l-55 -42q-47 -36 -49 -38l-391 -301l2 -2h6q6 0 18.5 1t28.5 2t38.5 1t48.5 1t58 1h66h504v-158h-996 v137l654 547q174 145 174 328q0 131 -89 216t-231 85q-143 0 -235 -74t-127 -201z" />
<glyph unicode="3" horiz-adv-x="1222" d="M90 381l152 41q23 -135 128 -217t255 -82q158 0 247 85t89 214q0 123 -93.5 187.5t-253.5 64.5h-127v137h129q326 0 326 256q0 96 -80 171t-244 75q-272 0 -348 -277l-151 41q41 180 175 282.5t333 102.5q240 0 363.5 -114.5t123.5 -272.5q0 -141 -93 -232t-218 -98v-2 q135 -4 232.5 -92t97.5 -237q0 -199 -141.5 -321t-362.5 -122q-203 0 -354.5 114t-184.5 296z" />
<glyph unicode="4" horiz-adv-x="1286" d="M90 360v121l795 953h131v-924h194v-150h-194v-360h-158v360h-768zM285 510l2 -2h45q41 0 97 1t93 1h336v381v68q0 36 1 65t1 56.5t1 49t2 37t1 25.5v8h-2l-22 -29l-60 -77l-73 -93l-295 -350l-76 -85q-33 -36 -41 -46z" />
<glyph unicode="5" horiz-adv-x="1202" d="M92 367l154 41q27 -129 123 -209t247 -80q147 0 244.5 97t97.5 244.5t-97 245t-245 97.5q-246 0 -321 -180l-145 39l124 772h766v-158h-639l-39 -219q-12 -68 -25 -128l-20 -89l-6 -27l2 -2q35 47 118 86t190 39q217 0 361 -135t144 -342q0 -209 -144 -348.5t-361 -139.5 q-209 0 -350.5 111t-178.5 285z" />
<glyph unicode="6" horiz-adv-x="1214" d="M90 469q0 133 47 246.5t152 253.5l354 465h184l-456 -603l2 -2q98 121 280 121q223 0 362.5 -140t139.5 -349q0 -213 -151.5 -351.5t-382.5 -138.5q-229 0 -380 139.5t-151 358.5zM258 469q0 -156 102.5 -252t266.5 -96q162 0 263 96q106 100 105 258q0 147 -99 240 q-101 94 -269 94q-166 0 -267.5 -94t-101.5 -246z" />
<glyph unicode="7" horiz-adv-x="1136" d="M70 1276v158h1022v-103l-748 -1331h-180l602 1063q27 49 60 102l55 84l18 29l-2 2h-12q-12 0 -34 -1l-45 -2q-24 -1 -52 -1h-52h-632z" />
<glyph unicode="8" horiz-adv-x="1249" d="M90 395q0 154 103.5 253.5t240.5 113.5v2q-86 8 -183 96t-97 225q0 160 132 268.5t338.5 108.5t339 -108.5t132.5 -268.5q0 -137 -97.5 -225t-183.5 -96v-2q139 -16 241.5 -115.5t102.5 -251.5q0 -186 -148.5 -304t-385.5 -120q-238 2 -386.5 120t-148.5 304zM250 399 q0 -133 101.5 -211.5t273.5 -81.5q172 2 273 81t101 212q0 129 -102 205t-272 76q-172 0 -273.5 -76t-101.5 -205zM301 1079q0 -109 90 -177q87 -67 225 -66h9q143 0 233 68.5t90 174.5q0 113 -91 184.5t-232 71.5q-143 0 -233.5 -71.5t-90.5 -184.5z" />
<glyph unicode="9" horiz-adv-x="1226" d="M59 969q0 221 154 357t387.5 136t385 -132t151.5 -367q0 -137 -64.5 -273.5t-216.5 -314.5l-321 -375h-193l516 602l-2 2q-104 -121 -285 -121q-238 0 -375 138.5t-137 347.5zM223 963q0 -166 107.5 -253t265.5 -87q162 0 267.5 91t105.5 249q0 172 -106.5 261t-266.5 89 q-158 0 -265.5 -90t-107.5 -260z" />
<glyph unicode=":" horiz-adv-x="448" d="M123 74q0 43 29.5 72.5t72.5 29.5q41 0 71 -30.5t30 -71.5q0 -43 -30 -72t-71 -29q-43 0 -72.5 30t-29.5 71zM123 709q0 43 29.5 72.5t72.5 29.5q41 0 71 -30.5t30 -71.5q0 -43 -30 -72t-71 -29q-43 0 -72.5 30t-29.5 71z" />
<glyph unicode=";" horiz-adv-x="479" d="M123 -276q47 43 81 111.5t34 127.5l20 10l-20 2q-33 0 -62 27t-29 70t32 71.5t75 28.5t72.5 -34t29.5 -87q0 -88 -46 -175t-113 -152h-74zM147 709q0 43 30 72.5t73 29.5q41 0 70.5 -30.5t29.5 -71.5q0 -43 -29.5 -72t-70.5 -29q-43 0 -73 30t-30 71z" />
<glyph unicode="&#x3c;" horiz-adv-x="1429" d="M229 752l732 -500h219l-721 500l721 499h-219z" />
<glyph unicode="=" horiz-adv-x="1429" d="M242 459v141h948v-141h-948zM242 842v141h948v-141h-948z" />
<glyph unicode="&#x3e;" horiz-adv-x="1429" d="M250 252l721 500l-721 499h219l731 -499l-731 -500h-219z" />
<glyph unicode="?" horiz-adv-x="1173" d="M90 1077q41 180 177 282.5t335 102.5q242 0 362.5 -115.5t120.5 -285.5q0 -90 -35.5 -162t-106.5 -127t-134.5 -90t-159.5 -76v-139h-170v207q244 109 338 189.5t94 191.5q0 102 -73.5 179t-239.5 77q-291 0 -367 -275zM479 0v322h170v-322h-170z" />
<glyph unicode="@" horiz-adv-x="1628" d="M90 721q0 319 205 530t518 211t519 -211t206 -530q0 -174 -75.5 -294t-213.5 -120q-80 0 -137 49.5t-65 135.5l-3 2q-29 -76 -107.5 -129.5t-166.5 -53.5q-162 0 -265.5 110.5t-103.5 285.5q0 184 103.5 300.5t271.5 116.5q76 0 137.5 -29.5t87 -58t27.5 -45.5h2v96h117 v-548q0 -63 30.5 -101.5t82.5 -38.5q82 0 127 91.5t45 230.5q0 276 -176.5 458.5t-442.5 182.5t-441 -181.5t-175 -460t176 -466.5t440 -188q86 0 157.5 13t115.5 33.5t75 40t46.5 33t17.5 13.5l82 -45q-4 -6 -20.5 -23.5t-57.5 -46.5t-94.5 -52.5t-139.5 -42t-182 -18.5 q-311 0 -517 216.5t-206 533.5zM607 509q73 -73 181 -73q102 0 171 71t71 195v93q2 100 -69.5 154.5t-172.5 54.5q-113 0 -184 -80q-70 -78 -70 -208q0 -134 73 -207z" />
<glyph unicode="A" horiz-adv-x="1472" d="M37 0l622 1434h154l623 -1434h-181l-159 375h-719l-160 -375h-180zM440 524h592l-227 533l-30 76l-27 71l-11 27h-2l-10 -27l-28 -71l-29 -76z" />
<glyph unicode="B" horiz-adv-x="1325" d="M190 0v1434h539q184 0 299 -98.5t115 -254.5q0 -104 -74 -189t-164 -104v-2q117 -16 223.5 -118.5t106.5 -245.5q0 -190 -126 -306t-347 -116h-572zM358 145h394q135 0 222 76t87 203q0 121 -93.5 201t-226.5 80h-383v-560zM358 838h338q121 0 200 66.5t79 160.5 q0 100 -77 161.5t-202 61.5h-338v-450z" />
<glyph unicode="C" horiz-adv-x="1558" d="M90 716.5q0 321.5 216 533.5t528 212q209 0 380.5 -101t270.5 -276l-170 -43q-74 119 -203 187.5t-278 68.5q-248 0 -410 -161.5t-162 -419.5q0 -256 164 -418t408 -162q164 0 299 81t206 216l166 -45q-90 -193 -269 -305.5t-402 -112.5q-311 0 -527.5 212t-216.5 533.5z " />
<glyph unicode="D" horiz-adv-x="1626" d="M190 0v1434h605q313 0 527 -204t214 -521q0 -311 -211 -510t-518 -199h-617zM358 158h449q233 0 395 151.5t162 399.5q0 254 -165 410.5t-404 156.5h-437v-1118z" />
<glyph unicode="E" horiz-adv-x="1288" d="M190 0v1434h957v-158h-789v-442h633v-150h-633v-526h801v-158h-969z" />
<glyph unicode="F" horiz-adv-x="1196" d="M190 0v1434h936v-158h-768v-485h613v-152h-613v-639h-168z" />
<glyph unicode="G" horiz-adv-x="1628" d="M90 716.5q0 321.5 216 533.5t528 212q217 -4 386 -104.5t265 -272.5l-170 -43q-74 119 -203 187.5t-278 68.5q-248 0 -410 -161.5t-162 -419.5t165 -420t413 -162q193 0 332 90t188 199v178h-438v139h583v-743h-147v51v43v35q0 16 1 28.5t1 21.5v17v11v6v2h-2 q-72 -88 -207 -165t-317 -77q-311 0 -527.5 212t-216.5 533.5z" />
<glyph unicode="H" horiz-adv-x="1501" d="M190 0v1434h168v-613h785v613h166v-1434h-166v664h-785v-664h-168z" />
<glyph unicode="I" horiz-adv-x="548" d="M190 0v1434h168v-1434h-168z" />
<glyph unicode="J" horiz-adv-x="1341" d="M29 340l166 45q43 -121 149.5 -189.5t245.5 -68.5q209 0 320.5 121t111.5 336v850h168v-840q0 -295 -157.5 -460t-442.5 -165q-199 0 -351.5 103.5t-209.5 267.5z" />
<glyph unicode="K" horiz-adv-x="1411" d="M190 0v1434h168v-383q0 -96 -1 -191.5t-1 -116.5v-38h2l35 36l96 98l109 109l485 486h207l-585 -586l628 -848h-198l-543 735l-234 -233v-502h-168z" />
<glyph unicode="L" horiz-adv-x="1167" d="M190 0v1434h168v-1276h768v-158h-936z" />
<glyph unicode="M" horiz-adv-x="1705" d="M190 0v1434h158l357 -607l90 -159l47 -86l10 -21h2l10 21l47 86l90 159l357 607h158v-1434h-166v645q0 96 2 224t4 204l2 78h-2l-21 -35l-52 -90l-52 -92l-334 -582h-88l-334 582l-52 92l-52 90l-21 35h-2l2 -78q2 -76 4 -204t2 -224v-645h-166z" />
<glyph unicode="N" horiz-adv-x="1556" d="M190 0v1434h158l637 -856l101 -138l85 -116l29 -41h2l-2 53q0 53 -1 155.5t-1 188.5v754h168v-1434h-158l-637 858l-106 150l-82 114l-27 37h-2l2 -49q0 -51 1 -155.5t1 -202.5v-752h-168z" />
<glyph unicode="O" d="M90 716.5q0 321.5 216 533.5t528 212q313 0 529 -212t216 -533.5t-216 -533.5t-529 -212q-311 0 -527.5 212t-216.5 533.5zM262 717q0 -256 163 -419t408.5 -163t408.5 163t163 419q0 258 -163 419.5t-408 161.5q-248 0 -410 -161.5t-162 -419.5z" />
<glyph unicode="P" horiz-adv-x="1224" d="M190 0v1434h441q250 0 391 -122t141 -335t-142 -336t-390 -123h-273v-518h-168zM358 676h269q174 0 269 80t95 221q0 143 -97 221t-267 78h-269v-600z" />
<glyph unicode="Q" d="M90 717q0 322 216 533.5t528 211.5q313 0 529 -212t216 -533q0 -299 -189.5 -506t-474.5 -236v-245h-167v245q-283 31 -470.5 238t-187.5 504zM262 717q0 -256 163 -419t408.5 -163t408.5 163t163 419q0 258 -163 419.5t-408 161.5q-248 0 -410 -161.5t-162 -419.5z" />
<glyph unicode="R" horiz-adv-x="1304" d="M190 0v1434h437q250 0 393 -122t143 -331q0 -154 -77.5 -259.5t-221.5 -152.5l348 -569h-188l-324 537q-23 -2 -73 -2h-269v-535h-168zM358 684h285q168 0 258 82t90 215q0 137 -92 216t-256 79h-285v-592z" />
<glyph unicode="S" horiz-adv-x="1220" d="M72 393l161 43q16 -133 120 -223t272 -90q156 0 249 73.5t93 188.5q0 43 -12.5 79t-43 64.5t-56.5 48t-78 40t-80.5 29.5t-92 27.5t-88.5 26.5q-70 23 -107.5 36.5t-103 46t-101.5 67.5t-64.5 93t-28.5 130q0 168 141 278.5t356 110.5q195 0 336 -105.5t176 -277.5 l-159 -43q-23 129 -122.5 204t-236.5 75q-143 0 -232 -63.5t-89 -170.5q0 -43 21.5 -78.5t50 -59t81.5 -46.5t94 -36l107 -34q23 -6 35 -10q78 -23 128 -41t122.5 -55t115.5 -78t75 -107.5t32 -146.5q0 -182 -145.5 -300t-379.5 -118q-223 0 -367 117t-179 305z" />
<glyph unicode="T" horiz-adv-x="1216" d="M45 1276v158h1126v-158h-481v-1276h-166v1276h-479z" />
<glyph unicode="U" horiz-adv-x="1480" d="M152 594v840h167v-842q0 -465 420 -465q422 0 422 465v842h168v-840q0 -303 -153.5 -464t-436 -161t-435 161t-152.5 464z" />
<glyph unicode="V" horiz-adv-x="1470" d="M37 1434h182l432 -1026q18 -43 39 -99.5t31 -87.5l12 -33h2l13 31q12 31 32.5 89.5t36.5 99.5l434 1026h181l-613 -1434h-170z" />
<glyph unicode="W" horiz-adv-x="2007" d="M53 1434h174l324 -969l32 -107q15 -53 23 -77l6 -25h2l7 25q6 25 21 78t34 106l254 776h147l254 -776q18 -53 33.5 -106.5t21.5 -77.5l7 -25h2l6 25q8 25 23 77l32 107l324 969h174l-486 -1434h-147l-238 754q-29 88 -48 159.5t-25 96.5l-6 24h-3l-6 -26l-24 -96 q-18 -71 -47 -158l-238 -754h-147z" />
<glyph unicode="X" horiz-adv-x="1368" d="M33 0l549 743l-506 691h203l315 -428l32 -49q24 -36 42 -60l16 -27h2l19 27l38 60q23 34 31 49l316 428h204l-508 -691l549 -743h-202l-353 467q-16 20 -40 57l-40 62l-14 24h-2l-16 -24l-40 -62q-24 -37 -40 -57l-352 -467h-203z" />
<glyph unicode="Y" horiz-adv-x="1343" d="M33 1434h190l361 -469l37 -49l38 -48l13 -16h2q2 0 86 113l358 469h193l-557 -729v-705h-166v705z" />
<glyph unicode="Z" horiz-adv-x="1413" d="M123 0v156l852 1011l45 48l45 47l18 16l-2 2h-8q-10 0 -27.5 -1t-39 -2t-51.5 -1h-60h-752v158h1147v-156l-839 -1006l-54 -60q-27 -30 -41 -44l-12 -14l2 -2h10q8 2 25.5 3t39 1t51.5 1t58 1h760v-158h-1167z" />
<glyph unicode="[" horiz-adv-x="694" d="M190 -309v2062h447v-158h-275v-1747h275v-157h-447z" />
<glyph unicode="\" horiz-adv-x="966" d="M37 1434l723 -1434h170l-733 1434h-160z" />
<glyph unicode="]" horiz-adv-x="714" d="M78 -152v-157h446v2062h-446v-158h274v-1747h-274z" />
<glyph unicode="^" horiz-adv-x="1341" d="M190 977l480 481l75 -76l404 -405l-82 -78l-395 408l-398 -408z" />
<glyph unicode="_" horiz-adv-x="1560" d="M190 0h1180v-131h-1180v131z" />
<glyph unicode="`" horiz-adv-x="628" d="M51 1724l64 119l438 -237l-53 -95z" />
<glyph unicode="a" horiz-adv-x="1472" d="M37 0l622 1434h154l623 -1434h-181l-159 375h-719l-160 -375h-180zM440 524h592l-227 533l-30 76l-27 71l-11 27h-2l-10 -27l-28 -71l-29 -76z" />
<glyph unicode="b" horiz-adv-x="1325" d="M190 0v1434h539q184 0 299 -98.5t115 -254.5q0 -104 -74 -189t-164 -104v-2q117 -16 223.5 -118.5t106.5 -245.5q0 -190 -126 -306t-347 -116h-572zM358 145h394q135 0 222 76t87 203q0 121 -93.5 201t-226.5 80h-383v-560zM358 838h338q121 0 200 66.5t79 160.5 q0 100 -77 161.5t-202 61.5h-338v-450z" />
<glyph unicode="c" horiz-adv-x="1558" d="M90 716.5q0 321.5 216 533.5t528 212q209 0 380.5 -101t270.5 -276l-170 -43q-74 119 -203 187.5t-278 68.5q-248 0 -410 -161.5t-162 -419.5q0 -256 164 -418t408 -162q164 0 299 81t206 216l166 -45q-90 -193 -269 -305.5t-402 -112.5q-311 0 -527.5 212t-216.5 533.5z " />
<glyph unicode="d" horiz-adv-x="1626" d="M190 0v1434h605q313 0 527 -204t214 -521q0 -311 -211 -510t-518 -199h-617zM358 158h449q233 0 395 151.5t162 399.5q0 254 -165 410.5t-404 156.5h-437v-1118z" />
<glyph unicode="e" horiz-adv-x="1288" d="M190 0v1434h957v-158h-789v-442h633v-150h-633v-526h801v-158h-969z" />
<glyph unicode="f" horiz-adv-x="1196" d="M190 0v1434h936v-158h-768v-485h613v-152h-613v-639h-168z" />
<glyph unicode="g" horiz-adv-x="1628" d="M90 716.5q0 321.5 216 533.5t528 212q217 -4 386 -104.5t265 -272.5l-170 -43q-74 119 -203 187.5t-278 68.5q-248 0 -410 -161.5t-162 -419.5t165 -420t413 -162q193 0 332 90t188 199v178h-438v139h583v-743h-147v51v43v35q0 16 1 28.5t1 21.5v17v11v6v2h-2 q-72 -88 -207 -165t-317 -77q-311 0 -527.5 212t-216.5 533.5z" />
<glyph unicode="h" horiz-adv-x="1501" d="M190 0v1434h168v-613h785v613h166v-1434h-166v664h-785v-664h-168z" />
<glyph unicode="i" horiz-adv-x="548" d="M190 0v1434h168v-1434h-168z" />
<glyph unicode="j" horiz-adv-x="1341" d="M29 340l166 45q43 -121 149.5 -189.5t245.5 -68.5q209 0 320.5 121t111.5 336v850h168v-840q0 -295 -157.5 -460t-442.5 -165q-199 0 -351.5 103.5t-209.5 267.5z" />
<glyph unicode="k" horiz-adv-x="1411" d="M190 0v1434h168v-383q0 -96 -1 -191.5t-1 -116.5v-38h2l35 36l96 98l109 109l485 486h207l-585 -586l628 -848h-198l-543 735l-234 -233v-502h-168z" />
<glyph unicode="l" horiz-adv-x="1167" d="M190 0v1434h168v-1276h768v-158h-936z" />
<glyph unicode="m" horiz-adv-x="1705" d="M190 0v1434h158l357 -607l90 -159l47 -86l10 -21h2l10 21l47 86l90 159l357 607h158v-1434h-166v645q0 96 2 224t4 204l2 78h-2l-21 -35l-52 -90l-52 -92l-334 -582h-88l-334 582l-52 92l-52 90l-21 35h-2l2 -78q2 -76 4 -204t2 -224v-645h-166z" />
<glyph unicode="n" horiz-adv-x="1556" d="M190 0v1434h158l637 -856l101 -138l85 -116l29 -41h2l-2 53q0 53 -1 155.5t-1 188.5v754h168v-1434h-158l-637 858l-106 150l-82 114l-27 37h-2l2 -49q0 -51 1 -155.5t1 -202.5v-752h-168z" />
<glyph unicode="o" d="M90 716.5q0 321.5 216 533.5t528 212q313 0 529 -212t216 -533.5t-216 -533.5t-529 -212q-311 0 -527.5 212t-216.5 533.5zM262 717q0 -256 163 -419t408.5 -163t408.5 163t163 419q0 258 -163 419.5t-408 161.5q-248 0 -410 -161.5t-162 -419.5z" />
<glyph unicode="p" horiz-adv-x="1224" d="M190 0v1434h441q250 0 391 -122t141 -335t-142 -336t-390 -123h-273v-518h-168zM358 676h269q174 0 269 80t95 221q0 143 -97 221t-267 78h-269v-600z" />
<glyph unicode="q" d="M90 717q0 322 216 533.5t528 211.5q313 0 529 -212t216 -533q0 -299 -189.5 -506t-474.5 -236v-245h-167v245q-283 31 -470.5 238t-187.5 504zM262 717q0 -256 163 -419t408.5 -163t408.5 163t163 419q0 258 -163 419.5t-408 161.5q-248 0 -410 -161.5t-162 -419.5z" />
<glyph unicode="r" horiz-adv-x="1304" d="M190 0v1434h437q250 0 393 -122t143 -331q0 -154 -77.5 -259.5t-221.5 -152.5l348 -569h-188l-324 537q-23 -2 -73 -2h-269v-535h-168zM358 684h285q168 0 258 82t90 215q0 137 -92 216t-256 79h-285v-592z" />
<glyph unicode="s" horiz-adv-x="1220" d="M72 393l161 43q16 -133 120 -223t272 -90q156 0 249 73.5t93 188.5q0 43 -12.5 79t-43 64.5t-56.5 48t-78 40t-80.5 29.5t-92 27.5t-88.5 26.5q-70 23 -107.5 36.5t-103 46t-101.5 67.5t-64.5 93t-28.5 130q0 168 141 278.5t356 110.5q195 0 336 -105.5t176 -277.5 l-159 -43q-23 129 -122.5 204t-236.5 75q-143 0 -232 -63.5t-89 -170.5q0 -43 21.5 -78.5t50 -59t81.5 -46.5t94 -36l107 -34q23 -6 35 -10q78 -23 128 -41t122.5 -55t115.5 -78t75 -107.5t32 -146.5q0 -182 -145.5 -300t-379.5 -118q-223 0 -367 117t-179 305z" />
<glyph unicode="t" horiz-adv-x="1216" d="M45 1276v158h1126v-158h-481v-1276h-166v1276h-479z" />
<glyph unicode="u" horiz-adv-x="1480" d="M152 594v840h167v-842q0 -465 420 -465q422 0 422 465v842h168v-840q0 -303 -153.5 -464t-436 -161t-435 161t-152.5 464z" />
<glyph unicode="v" horiz-adv-x="1470" d="M37 1434h182l432 -1026q18 -43 39 -99.5t31 -87.5l12 -33h2l13 31q12 31 32.5 89.5t36.5 99.5l434 1026h181l-613 -1434h-170z" />
<glyph unicode="w" horiz-adv-x="2007" d="M53 1434h174l324 -969l32 -107q15 -53 23 -77l6 -25h2l7 25q6 25 21 78t34 106l254 776h147l254 -776q18 -53 33.5 -106.5t21.5 -77.5l7 -25h2l6 25q8 25 23 77l32 107l324 969h174l-486 -1434h-147l-238 754q-29 88 -48 159.5t-25 96.5l-6 24h-3l-6 -26l-24 -96 q-18 -71 -47 -158l-238 -754h-147z" />
<glyph unicode="x" horiz-adv-x="1368" d="M33 0l549 743l-506 691h203l315 -428l32 -49q24 -36 42 -60l16 -27h2l19 27l38 60q23 34 31 49l316 428h204l-508 -691l549 -743h-202l-353 467q-16 20 -40 57l-40 62l-14 24h-2l-16 -24l-40 -62q-24 -37 -40 -57l-352 -467h-203z" />
<glyph unicode="y" horiz-adv-x="1343" d="M33 1434h190l361 -469l37 -49l38 -48l13 -16h2q2 0 86 113l358 469h193l-557 -729v-705h-166v705z" />
<glyph unicode="z" horiz-adv-x="1413" d="M123 0v156l852 1011l45 48l45 47l18 16l-2 2h-8q-10 0 -27.5 -1t-39 -2t-51.5 -1h-60h-752v158h1147v-156l-839 -1006l-54 -60q-27 -30 -41 -44l-12 -14l2 -2h10q8 2 25.5 3t39 1t51.5 1t58 1h760v-158h-1167z" />
<glyph unicode="{" horiz-adv-x="798" d="M190 721q6 2 15.5 6t32 25.5t41 52.5t33 92t14.5 139v256q0 240 114.5 357.5t325.5 117.5v-155q-274 0 -274 -326v-239q0 -262 -111 -326q8 -4 17.5 -11.5t27.5 -31t31.5 -56t24 -93t10.5 -136.5v-237q0 -326 274 -326v-156q-211 0 -325.5 118t-114.5 358v256 q0 78 -14.5 138t-34 92t-39 52.5t-33.5 26.5z" />
<glyph unicode="|" horiz-adv-x="520" d="M190 -152v1739h140v-1739h-140z" />
<glyph unicode="}" horiz-adv-x="798" d="M33 1612q274 0 274 -326v-239q0 -262 111 -326q-8 -4 -17.5 -11.5t-28 -31t-31.5 -56t-23.5 -93t-10.5 -136.5v-237q0 -326 -274 -326v-156q211 0 325.5 118t114.5 358v256q0 78 14.5 138t34 92t39 52.5t33.5 26.5l14 6q-6 2 -15 6t-31.5 25.5t-41 52.5t-33 92t-14.5 139 v256q0 240 -114.5 357.5t-325.5 117.5v-155z" />
<glyph unicode="~" horiz-adv-x="1429" d="M252 641q14 104 92 161.5t178 57.5q74 0 143.5 -39t129 -76.5t106.5 -37.5q66 0 103.5 37.5t42.5 91.5l143 -39q-14 -102 -91 -159.5t-177 -57.5q-92 0 -210 75.5t-171 75.5q-70 0 -107 -36t-41 -91z" />
<glyph unicode="&#xa1;" horiz-adv-x="548" d="M190 0v967h168v-967h-168zM190 1112v322h168v-322h-168z" />
<glyph unicode="&#xa2;" horiz-adv-x="1161" d="M90 717q0 209 131 356.5t328 173.5v215h139v-215q133 -16 240.5 -91t165.5 -189l-146 -39q-106 178 -327 178q-166 0 -270.5 -106.5t-104.5 -282.5t104.5 -282.5t270.5 -106.5q117 0 207 54t137 153l143 -41q-53 -127 -166 -210t-254 -100v-213h-137v213 q-199 25 -330 173.5t-131 359.5z" />
<glyph unicode="&#xa3;" horiz-adv-x="1343" d="M190 0v158q119 25 153 115q23 61 23 164q0 49 -6 108l-10 114h-147v138h135l-19 211q-2 24 -2 47q0 158 109 272q125 131 317 135h13q94 0 179 -29q91 -32 177 -124t121 -234l-146 -39q-81 277 -322 277h-17q-129 -4 -202 -94q-62 -77 -62 -186q0 -18 1 -38l19 -198h481 v-138h-469l10 -110q5 -55 5 -103q0 -232 -115 -292l2 -2h12q12 0 33.5 1t50.5 2t65.5 1t76.5 1t87 1h93h415v-158h-1061z" />
<glyph unicode="&#xa4;" horiz-adv-x="1339" d="M94 221l150 150q-113 145 -113 325q0 193 123 342l-145 144l88 88l147 -146q145 113 324 113q186 0 327 -113l148 146l86 -88l-146 -146q125 -145 125 -340q0 -184 -112 -325l149 -150l-88 -88l-147 150q-152 -125 -342 -125q-186 0 -338 125l-150 -150zM285 700 q0 -166 111.5 -277.5t273 -111.5t274.5 112t113 277q0 162 -113 276t-274.5 114t-273 -113t-111.5 -277z" />
<glyph unicode="&#xa5;" horiz-adv-x="1341" d="M33 1434h190l361 -469l37 -49l38 -48l13 -16h2q2 0 86 113l358 469h193l-428 -562h291v-120h-383l-37 -47v-33h420v-121h-420v-551h-166v551h-406v121h406v33l-37 47h-369v120h279z" />
<glyph unicode="&#xa6;" horiz-adv-x="520" d="M190 -152v594h140v-594h-140zM190 1014v573h140v-573h-140z" />
<glyph unicode="&#xa7;" horiz-adv-x="1077" d="M72 272l139 37q18 -98 104 -161.5t230 -63.5q135 0 216 51t81 129q0 31 -10.5 55.5t-37 45t-47 34t-66.5 28.5t-67.5 21.5t-79.5 20.5l-75 18l-78 21q-23 6 -78 24.5t-81.5 36t-60.5 45t-49.5 63.5t-15.5 79q0 162 217 229q-182 72 -182 213q0 117 119 192.5t301 75.5 q162 0 278.5 -71.5t147.5 -192.5l-141 -37q-16 88 -96.5 137.5t-194.5 49.5q-117 0 -189.5 -41t-72.5 -109q0 -18 5 -33.5t17 -28t24.5 -22.5t35.5 -19l39 -17q17 -7 47 -14l48 -12l52 -14q33 -8 51 -12q68 -16 107 -28.5t101 -39t97 -55t61.5 -75t26.5 -101.5 q0 -158 -207 -213q209 -86 209 -248q0 -133 -126 -218t-330 -85q-193 0 -314.5 85t-154.5 220zM242 762q0 -18 6 -34.5t19.5 -30t26.5 -24.5t38 -22l42 -17q17 -7 51 -15.5t51.5 -13.5t55 -13t54.5 -12l67 -19q88 16 141.5 59.5t53.5 106.5q0 31 -11.5 55.5t-36 43t-47 31.5 t-63.5 26.5t-67 19.5l-76 18q-49 11 -72 17q-92 -12 -162.5 -56t-70.5 -120z" />
<glyph unicode="&#xa8;" horiz-adv-x="811" d="M51 1667q0 41 29 69.5t72 28.5q41 0 70.5 -28.5t29.5 -69.5q0 -43 -29.5 -71.5t-70.5 -28.5q-43 0 -72 28.5t-29 71.5zM535 1667q0 41 29.5 69.5t70.5 28.5q43 0 71.5 -28.5t28.5 -69.5q0 -43 -28.5 -71.5t-71.5 -28.5q-41 0 -70.5 28.5t-29.5 71.5z" />
<glyph unicode="&#xa9;" d="M90 716.5q0 321.5 216 533.5t528 212q313 0 529 -212t216 -533.5t-216 -533.5t-529 -212q-311 0 -527.5 212t-216.5 533.5zM221 717q0 -274 173 -447.5t440 -173.5q264 0 438 173t174 448q0 276 -174 449t-438 173q-266 0 -439.5 -171.5t-173.5 -450.5zM477 714.5 q0 155.5 104.5 260t258.5 104.5q102 0 193 -55t132 -141l-106 -31q-31 55 -90.5 88t-128.5 33q-111 0 -180.5 -72t-69.5 -186.5t69.5 -186t180.5 -71.5q74 0 137 39t92 102l107 -31q-39 -94 -133.5 -155.5t-202.5 -61.5q-154 0 -258.5 104.5t-104.5 260z" />
<glyph unicode="&#xaa;" horiz-adv-x="722" d="M41 522v111h641v-111h-641zM45 768l268 682h95l268 -682h-119l-59 160h-277l-59 -160h-117zM256 1016h209l-64 170q-10 29 -19 66.5t-13 60.5l-7 22h-2l-4 -22l-16 -61q-10 -38 -21 -66z" />
<glyph unicode="&#xab;" horiz-adv-x="1540" d="M190 721l482 -479l98 94l-393 385l391 385l-94 94zM770 721l481 -479l99 94l-394 385l392 385l-95 94z" />
<glyph unicode="&#xad;" horiz-adv-x="1329" d="M190 657v142h949v-142h-949z" />
<glyph unicode="&#xae;" d="M90 716.5q0 321.5 216 533.5t528 212q313 0 529 -212t216 -533.5t-216 -533.5t-529 -212q-311 0 -527.5 212t-216.5 533.5zM221 717q0 -274 173 -447.5t440 -173.5q264 0 438 173t174 448q0 276 -174 449t-438 173q-266 0 -439.5 -171.5t-173.5 -450.5zM606 352v731h232 q127 0 200.5 -61t73.5 -168q0 -156 -147 -209l180 -293h-117l-166 275h-24h-125v-275h-107zM713 717h133q162 0 162 135q0 133 -162 133h-133v-268z" />
<glyph unicode="&#xaf;" horiz-adv-x="755" d="M37 1415v131h659v-131h-659z" />
<glyph unicode="&#xb0;" horiz-adv-x="600" d="M76 1427q0 94 65.5 159t159.5 65q92 0 157.5 -65.5t65.5 -158t-66.5 -158t-156.5 -65.5q-94 0 -159.5 65.5t-65.5 157.5zM180 1430q0 -47 36 -83t85 -36t85 35.5t36 83.5q0 49 -36 83.5t-85 34.5t-85 -34.5t-36 -83.5z" />
<glyph unicode="&#xb1;" horiz-adv-x="1429" d="M242 -20v141h948v-141h-948zM242 657v142h397v393h152v-393h399v-142h-397v-344h-152v344h-399z" />
<glyph unicode="&#xb2;" horiz-adv-x="673" d="M41 1538q29 115 109.5 179.5t193.5 64.5q121 0 203 -76t82 -186q0 -137 -148 -258l-168 -132q-27 -20 -55.5 -36.5t-44.5 -24.5l-14 -8l2 -2l32 2q31 4 79 7t91 3h220v-106h-568v84l328 264q129 102 129 205q0 68 -48 110.5t-122 42.5q-82 0 -126 -42t-66 -120z" />
<glyph unicode="&#xb3;" horiz-adv-x="677" d="M41 1196l106 27q6 -78 60.5 -124t140.5 -46q82 0 126 42t44 105q0 59 -49 96t-127 37h-80v90h80q74 0 121 38t47 95q0 47 -41 85t-123 38q-152 0 -186 -155l-105 28q20 104 98 167t193 63q135 0 207 -63.5t72 -155.5q0 -76 -54.5 -127.5t-124.5 -55.5v-2q78 -4 132.5 -52 t54.5 -128q0 -111 -81 -180.5t-204 -69.5q-119 0 -206 69.5t-101 178.5z" />
<glyph unicode="&#xb4;" horiz-adv-x="628" d="M51 1606l441 237l61 -119l-449 -213z" />
<glyph unicode="&#xb6;" horiz-adv-x="1327" d="M90 1063q0 174 120 272.5t335 98.5h592v-1434h-168v1276h-174v-1276h-160v692h-90q-215 0 -335 97.5t-120 273.5z" />
<glyph unicode="&#xb7;" horiz-adv-x="448" d="M123 709q0 43 29.5 72.5t72.5 29.5q41 0 71 -30.5t30 -71.5q0 -43 -30 -72t-71 -29q-43 0 -72.5 30t-29.5 71z" />
<glyph unicode="&#xb8;" horiz-adv-x="493" d="M51 -483l41 98h109q53 0 83.5 25.5t30.5 66.5q0 43 -31.5 69.5t-82.5 26.5h-131l69 197h105l-39 -102h7q89 0 146 -51q59 -52 60 -138q0 -90 -60.5 -141t-156.5 -51h-150z" />
<glyph unicode="&#xb9;" horiz-adv-x="454" d="M29 1513l266 252h82v-800h-119v477q0 16 1 39.5t3 46.5l4 43q2 20 4 33v12h-2q-2 0 -10 -11.5t-24.5 -31t-32.5 -33.5l-97 -96z" />
<glyph unicode="&#xba;" horiz-adv-x="751" d="M20 1106q0 154 102.5 255t252.5 101q147 0 251.5 -101t104.5 -255q0 -152 -104.5 -253t-251.5 -101q-150 0 -252.5 101t-102.5 253zM43 522v111h668v-111h-668zM133 1105.5q0 -106.5 69.5 -176t172.5 -69.5q104 0 172.5 69.5t68.5 176t-68.5 177.5t-172.5 71 q-102 0 -172 -71t-70 -177.5z" />
<glyph unicode="&#xbb;" horiz-adv-x="1540" d="M190 336l394 385l-391 385l94 94l483 -479l-481 -479zM770 336l393 385l-391 385l94 94l484 -479l-482 -479z" />
<glyph unicode="&#xbc;" horiz-adv-x="1382" d="M29 1182l266 252h82v-801h-119v477q0 16 1 40t3 46l4 43q2 20 4 33v12h-2q-2 0 -10 -11t-24.5 -30.5t-32.5 -34.5l-97 -96zM121 0l977 1434h121l-977 -1434h-121zM707 193v81l440 527h86v-506h104v-102h-104v-193h-109v193h-417zM827 291l2 -2h7q8 0 21 1t28.5 2t37.5 1 h42h159v174q0 27 1 54.5t1 47t1 36t3 24.5v8h-2l-16 -23l-44 -59q-28 -37 -50 -61l-105 -121q-14 -18 -36 -38l-37 -32z" />
<glyph unicode="&#xbd;" horiz-adv-x="1462" d="M29 1182l266 252h82v-801h-119v477q0 16 1 40t3 46l4 43q2 20 4 33v12h-2q-2 0 -10 -11t-24.5 -30.5t-32.5 -34.5l-97 -96zM121 0l977 1434h121l-977 -1434h-121zM829 573q29 115 110 179.5t194 64.5q121 0 202.5 -75.5t81.5 -186.5q0 -137 -147 -258l-168 -131 q-27 -20 -55 -37l-43 -25l-17 -8l2 -2l31 4l81 5q48 3 91 3h219v-106h-567v84l327 264q129 102 129 205q0 68 -48 111t-122 43q-82 0 -125.5 -42t-66.5 -120z" />
<glyph unicode="&#xbe;" horiz-adv-x="1533" d="M41 864l106 27q6 -78 60.5 -124t140.5 -46q82 0 126 42t44 105q0 59 -49 96t-127 37h-80v91h80q74 0 121 37.5t47 95.5q0 47 -41 85t-123 38q-152 0 -186 -156l-105 29q20 104 98 166.5t193 62.5q135 0 207 -63.5t72 -155.5q0 -76 -54.5 -127t-124.5 -55v-2 q78 -4 132.5 -52.5t54.5 -128.5q0 -111 -81 -180.5t-204 -69.5q-119 0 -206 69.5t-101 178.5zM270 0l979 1434h121l-977 -1434h-123zM858 193v81l440 527h86v-506h105v-102h-105v-193h-108v193h-418zM979 291l2 -2h6q8 0 21.5 1t29 2t36.5 1h42h160v174q0 27 1 54.5t1 47 t1 36t3 24.5v8h-2l-16 -23l-44 -59q-28 -37 -51 -61l-104 -121q-14 -18 -37 -38l-37 -32z" />
<glyph unicode="&#xbf;" horiz-adv-x="1173" d="M88 373q0 90 36 161.5t106.5 127t134 90t159.5 75.5v140h170v-207q-244 -109 -338 -190t-94 -191q0 -102 74 -179t239 -77q291 0 367 274l141 -41q-41 -180 -177 -282.5t-335 -102.5q-242 0 -362.5 116t-120.5 286zM524 1112v322h170v-322h-170z" />
<glyph unicode="&#xc0;" horiz-adv-x="1472" d="M37 0l622 1434h154l623 -1434h-181l-159 375h-719l-160 -375h-180zM401 1724l64 119l438 -237l-53 -95zM440 524h592l-227 533l-30 76l-27 71l-11 27h-2l-10 -27l-28 -71l-29 -76z" />
<glyph unicode="&#xc1;" horiz-adv-x="1472" d="M37 0l622 1434h154l623 -1434h-181l-159 375h-719l-160 -375h-180zM440 524h592l-227 533l-30 76l-27 71l-11 27h-2l-10 -27l-28 -71l-29 -76zM537 1606l440 237l61 -119l-448 -213z" />
<glyph unicode="&#xc2;" horiz-adv-x="1472" d="M37 0l622 1434h154l623 -1434h-181l-159 375h-719l-160 -375h-180zM391 1608l342 288l340 -288l-84 -88l-256 215l-256 -215zM440 524h592l-227 533l-30 76l-27 71l-11 27h-2l-10 -27l-28 -71l-29 -76z" />
<glyph unicode="&#xc3;" horiz-adv-x="1472" d="M37 0l622 1434h154l623 -1434h-181l-159 375h-719l-160 -375h-180zM365 1573q0 92 63.5 152.5t161.5 60.5q72 0 155.5 -59.5t120.5 -59.5q43 0 72 27.5t29 68.5h135q2 -92 -61.5 -152.5t-163.5 -60.5q-63 0 -148.5 59.5t-126.5 59.5q-45 0 -73.5 -27.5t-28.5 -68.5h-135z M440 524h592l-227 533l-30 76l-27 71l-11 27h-2l-10 -27l-28 -71l-29 -76z" />
<glyph unicode="&#xc4;" horiz-adv-x="1472" d="M37 0l622 1434h154l623 -1434h-181l-159 375h-719l-160 -375h-180zM389 1667q0 41 28.5 69.5t71.5 28.5q41 0 71 -28.5t30 -69.5q0 -43 -30 -71.5t-71 -28.5q-43 0 -71.5 28.5t-28.5 71.5zM440 524h592l-227 533l-30 76l-27 71l-11 27h-2l-10 -27l-28 -71l-29 -76z M872 1667q0 41 30 69.5t71 28.5q43 0 71.5 -28.5t28.5 -69.5q0 -43 -28.5 -71.5t-71.5 -28.5q-41 0 -71 28.5t-30 71.5z" />
<glyph unicode="&#xc5;" horiz-adv-x="1472" d="M37 0l620 1427q-63 25 -103 82.5t-40 126.5q0 92 64.5 158t158.5 66q92 0 159 -65.5t67 -158.5q0 -72 -41 -129t-107 -80l621 -1427h-181l-159 375h-719l-160 -375h-180zM440 524h592l-227 533l-30 76l-27 71l-11 27h-2l-10 -27l-28 -71l-29 -76zM616 1636 q0 -47 36 -82.5t85 -35.5t85 35.5t36 82.5q0 51 -36 86t-85 35t-85 -35t-36 -86z" />
<glyph unicode="&#xc6;" horiz-adv-x="2027" d="M37 0l639 1434h1212v-158h-788v-442h635v-150h-635v-526h801v-158h-967v375h-551l-164 -375h-182zM449 524h485v752h-164l-18 -43l-49 -118l-48 -116z" />
<glyph unicode="&#xc7;" horiz-adv-x="1558" d="M90 717q0 322 216 533.5t528 211.5q209 0 380.5 -101t270.5 -276l-170 -43q-74 119 -203 187.5t-278 68.5q-248 0 -410 -161.5t-162 -419.5q0 -256 164 -418t408 -162q164 0 299 81t206 216l166 -45q-86 -186 -258 -297.5t-385 -120.5l-28 -73h6q88 0 146 -51 q60 -52 61 -138q0 -90 -61.5 -141t-158.5 -51h-147l39 98h108q53 0 84 25.5t31 66.5q0 43 -31.5 69.5t-83.5 26.5h-129l62 172q-287 27 -478.5 234t-191.5 508z" />
<glyph unicode="&#xc8;" horiz-adv-x="1288" d="M190 0v1434h957v-158h-789v-442h633v-150h-633v-526h801v-158h-969zM344 1724l64 119l438 -237l-53 -95z" />
<glyph unicode="&#xc9;" horiz-adv-x="1288" d="M190 0v1434h957v-158h-789v-442h633v-150h-633v-526h801v-158h-969zM479 1606l441 237l61 -119l-449 -213z" />
<glyph unicode="&#xca;" horiz-adv-x="1288" d="M190 0v1434h957v-158h-789v-442h633v-150h-633v-526h801v-158h-969zM334 1608l342 288l340 -288l-84 -88l-256 215l-256 -215z" />
<glyph unicode="&#xcb;" horiz-adv-x="1288" d="M190 0v1434h957v-158h-789v-442h633v-150h-633v-526h801v-158h-969zM332 1667q0 41 28.5 69.5t71.5 28.5q41 0 70.5 -28.5t29.5 -69.5q0 -43 -29.5 -71.5t-70.5 -28.5q-43 0 -71.5 28.5t-28.5 71.5zM815 1667q0 41 29.5 69.5t70.5 28.5q43 0 72 -28.5t29 -69.5 q0 -43 -29 -71.5t-72 -28.5q-41 0 -70.5 28.5t-29.5 71.5z" />
<glyph unicode="&#xcc;" horiz-adv-x="548" d="M-61 1724l63 119l438 -237l-53 -95zM190 0v1434h168v-1434h-168z" />
<glyph unicode="&#xcd;" horiz-adv-x="548" d="M74 1606l440 237l61 -119l-448 -213zM190 0v1434h168v-1434h-168z" />
<glyph unicode="&#xce;" horiz-adv-x="548" d="M-72 1608l342 288l340 -288l-84 -88l-256 215l-256 -215zM190 0v1434h168v-1434h-168z" />
<glyph unicode="&#xcf;" horiz-adv-x="548" d="M-74 1667q0 41 29 69.5t72 28.5q41 0 70.5 -28.5t29.5 -69.5q0 -43 -29.5 -71.5t-70.5 -28.5q-43 0 -72 28.5t-29 71.5zM190 0v1434h168v-1434h-168zM410 1667q0 41 29.5 69.5t70.5 28.5q43 0 71.5 -28.5t28.5 -69.5q0 -43 -28.5 -71.5t-71.5 -28.5q-41 0 -70.5 28.5 t-29.5 71.5z" />
<glyph unicode="&#xd0;" horiz-adv-x="1636" d="M90 653v152h111v629h604q313 0 527 -204t214 -521q0 -311 -211 -510t-518 -199h-616v653h-111zM369 158h448q233 0 395 151.5t162 399.5q0 254 -165 410.5t-404 156.5h-436v-471h364v-152h-364v-495z" />
<glyph unicode="&#xd1;" horiz-adv-x="1556" d="M190 0v1434h158l637 -856l101 -138l85 -116l29 -41h2l-2 53q0 53 -1 155.5t-1 188.5v754h168v-1434h-158l-637 858l-106 150l-82 114l-27 37h-2l2 -49q0 -51 1 -155.5t1 -202.5v-752h-168zM410 1573q0 92 63.5 152.5t161.5 60.5q72 0 155.5 -59.5t120.5 -59.5 q43 0 72 27.5t29 68.5h135q2 -92 -61.5 -152.5t-163.5 -60.5q-63 0 -148.5 59.5t-126.5 59.5q-45 0 -73.5 -27.5t-28.5 -68.5h-135z" />
<glyph unicode="&#xd2;" d="M90 716.5q0 321.5 216 533.5t528 212q313 0 529 -212t216 -533.5t-216 -533.5t-529 -212q-311 0 -527.5 212t-216.5 533.5zM262 717q0 -256 163 -419t408.5 -163t408.5 163t163 419q0 258 -163 419.5t-408 161.5q-248 0 -410 -161.5t-162 -419.5zM508 1724l63 119 l439 -237l-54 -95z" />
<glyph unicode="&#xd3;" d="M90 716.5q0 321.5 216 533.5t528 212q313 0 529 -212t216 -533.5t-216 -533.5t-529 -212q-311 0 -527.5 212t-216.5 533.5zM262 717q0 -256 163 -419t408.5 -163t408.5 163t163 419q0 258 -163 419.5t-408 161.5q-248 0 -410 -161.5t-162 -419.5zM643 1606l440 237 l62 -119l-449 -213z" />
<glyph unicode="&#xd4;" d="M90 716.5q0 321.5 216 533.5t528 212q313 0 529 -212t216 -533.5t-216 -533.5t-529 -212q-311 0 -527.5 212t-216.5 533.5zM262 717q0 -256 163 -419t408.5 -163t408.5 163t163 419q0 258 -163 419.5t-408 161.5q-248 0 -410 -161.5t-162 -419.5zM498 1608l342 288 l340 -288l-84 -88l-256 215l-256 -215z" />
<glyph unicode="&#xd5;" d="M90 716.5q0 321.5 216 533.5t528 212q313 0 529 -212t216 -533.5t-216 -533.5t-529 -212q-311 0 -527.5 212t-216.5 533.5zM262 717q0 -256 163 -419t408.5 -163t408.5 163t163 419q0 258 -163 419.5t-408 161.5q-248 0 -410 -161.5t-162 -419.5zM471 1573 q0 92 63.5 152.5t161.5 60.5q72 0 156 -59.5t121 -59.5q43 0 71.5 27.5t28.5 68.5h135q2 -92 -61.5 -152.5t-163.5 -60.5q-63 0 -148 59.5t-126 59.5q-45 0 -74 -27.5t-29 -68.5h-135z" />
<glyph unicode="&#xd6;" d="M90 716.5q0 321.5 216 533.5t528 212q313 0 529 -212t216 -533.5t-216 -533.5t-529 -212q-311 0 -527.5 212t-216.5 533.5zM262 717q0 -256 163 -419t408.5 -163t408.5 163t163 419q0 258 -163 419.5t-408 161.5q-248 0 -410 -161.5t-162 -419.5zM496 1667 q0 41 28.5 69.5t71.5 28.5q41 0 70.5 -28.5t29.5 -69.5q0 -43 -29.5 -71.5t-70.5 -28.5q-43 0 -71.5 28.5t-28.5 71.5zM979 1667q0 41 29.5 69.5t70.5 28.5q43 0 72 -28.5t29 -69.5q0 -43 -29 -71.5t-72 -28.5q-41 0 -70.5 28.5t-29.5 71.5z" />
<glyph unicode="&#xd7;" horiz-adv-x="1429" d="M309 438l295 295l-295 295l111 109l295 -293l297 295l110 -111l-297 -295l297 -297l-112 -110l-295 297l-295 -295z" />
<glyph unicode="&#xd8;" d="M90 717q0 322 216 533.5t528 211.5q219 0 397 -108l78 102l118 -88l-79 -104q231 -215 231 -547q0 -322 -216 -534t-529 -212q-215 0 -390 105l-75 -101l-119 91l76 100q-236 215 -236 551zM262 717q0 -256 164 -420l704 926q-133 76 -296 75q-248 0 -410 -161.5 t-162 -419.5zM545 207q127 -72 289 -72q246 0 408.5 163t162.5 419q0 252 -158 413z" />
<glyph unicode="&#xd9;" horiz-adv-x="1480" d="M152 594v840h167v-842q0 -465 420 -465q422 0 422 465v842h168v-840q0 -303 -153.5 -464t-436 -161t-435 161t-152.5 464zM410 1724l63 119l438 -237l-53 -95z" />
<glyph unicode="&#xda;" horiz-adv-x="1480" d="M152 594v840h167v-842q0 -465 420 -465q422 0 422 465v842h168v-840q0 -303 -153.5 -464t-436 -161t-435 161t-152.5 464zM545 1606l440 237l62 -119l-449 -213z" />
<glyph unicode="&#xdb;" horiz-adv-x="1480" d="M152 594v840h167v-842q0 -465 420 -465q422 0 422 465v842h168v-840q0 -303 -153.5 -464t-436 -161t-435 161t-152.5 464zM399 1608l342 288l340 -288l-84 -88l-256 215l-256 -215z" />
<glyph unicode="&#xdc;" horiz-adv-x="1480" d="M152 594v840h167v-842q0 -465 420 -465q422 0 422 465v842h168v-840q0 -303 -153.5 -464t-436 -161t-435 161t-152.5 464zM397 1667q0 41 29 69.5t72 28.5q41 0 70.5 -28.5t29.5 -69.5q0 -43 -29.5 -71.5t-70.5 -28.5q-43 0 -72 28.5t-29 71.5zM881 1667q0 41 29.5 69.5 t70.5 28.5q43 0 71.5 -28.5t28.5 -69.5q0 -43 -28.5 -71.5t-71.5 -28.5q-41 0 -70.5 28.5t-29.5 71.5z" />
<glyph unicode="&#xdd;" horiz-adv-x="1343" d="M33 1434h190l361 -469l37 -49l38 -48l13 -16h2q2 0 86 113l358 469h193l-557 -729v-705h-166v705zM471 1606l440 237l62 -119l-449 -213z" />
<glyph unicode="&#xde;" horiz-adv-x="1243" d="M190 0v1434h168v-258h310q215 0 350 -127t135 -328t-135 -328t-350 -127h-310v-266h-168zM358 424h314q139 0 224 82t85 215t-85 216q-83 81 -218 81h-6h-314v-594z" />
<glyph unicode="&#xdf;" horiz-adv-x="1576" d="M190 0v1434h1158l-244 -441q-14 -29 -39 -71l-41 -72l-16 -29l2 -2h14h7q200 0 327 -116q129 -118 129 -300q0 -186 -132 -309t-343 -123q-160 0 -292 76t-198 205l160 47q106 -182 324 -182q141 0 227 82t86 207q0 117 -83 200.5t-232 83.5h-154v129l164 305 q12 25 35 64l36 65l15 25l-2 2h-8q-8 0 -21.5 -1t-31 -2t-42.5 -1h-47h-590v-1276h-168z" />
<glyph unicode="&#xe0;" horiz-adv-x="1472" d="M37 0l622 1434h154l623 -1434h-181l-159 375h-719l-160 -375h-180zM401 1724l64 119l438 -237l-53 -95zM440 524h592l-227 533l-30 76l-27 71l-11 27h-2l-10 -27l-28 -71l-29 -76z" />
<glyph unicode="&#xe1;" horiz-adv-x="1472" d="M37 0l622 1434h154l623 -1434h-181l-159 375h-719l-160 -375h-180zM440 524h592l-227 533l-30 76l-27 71l-11 27h-2l-10 -27l-28 -71l-29 -76zM537 1606l440 237l61 -119l-448 -213z" />
<glyph unicode="&#xe2;" horiz-adv-x="1472" d="M37 0l622 1434h154l623 -1434h-181l-159 375h-719l-160 -375h-180zM391 1608l342 288l340 -288l-84 -88l-256 215l-256 -215zM440 524h592l-227 533l-30 76l-27 71l-11 27h-2l-10 -27l-28 -71l-29 -76z" />
<glyph unicode="&#xe3;" horiz-adv-x="1472" d="M37 0l622 1434h154l623 -1434h-181l-159 375h-719l-160 -375h-180zM365 1573q0 92 63.5 152.5t161.5 60.5q72 0 155.5 -59.5t120.5 -59.5q43 0 72 27.5t29 68.5h135q2 -92 -61.5 -152.5t-163.5 -60.5q-63 0 -148.5 59.5t-126.5 59.5q-45 0 -73.5 -27.5t-28.5 -68.5h-135z M440 524h592l-227 533l-30 76l-27 71l-11 27h-2l-10 -27l-28 -71l-29 -76z" />
<glyph unicode="&#xe4;" horiz-adv-x="1472" d="M37 0l622 1434h154l623 -1434h-181l-159 375h-719l-160 -375h-180zM389 1667q0 41 28.5 69.5t71.5 28.5q41 0 71 -28.5t30 -69.5q0 -43 -30 -71.5t-71 -28.5q-43 0 -71.5 28.5t-28.5 71.5zM440 524h592l-227 533l-30 76l-27 71l-11 27h-2l-10 -27l-28 -71l-29 -76z M872 1667q0 41 30 69.5t71 28.5q43 0 71.5 -28.5t28.5 -69.5q0 -43 -28.5 -71.5t-71.5 -28.5q-41 0 -71 28.5t-30 71.5z" />
<glyph unicode="&#xe5;" horiz-adv-x="1472" d="M37 0l620 1427q-63 25 -103 82.5t-40 126.5q0 92 64.5 158t158.5 66q92 0 159 -65.5t67 -158.5q0 -72 -41 -129t-107 -80l621 -1427h-181l-159 375h-719l-160 -375h-180zM440 524h592l-227 533l-30 76l-27 71l-11 27h-2l-10 -27l-28 -71l-29 -76zM616 1636 q0 -47 36 -82.5t85 -35.5t85 35.5t36 82.5q0 51 -36 86t-85 35t-85 -35t-36 -86z" />
<glyph unicode="&#xe6;" horiz-adv-x="2027" d="M37 0l639 1434h1212v-158h-788v-442h635v-150h-635v-526h801v-158h-967v375h-551l-164 -375h-182zM449 524h485v752h-164l-18 -43l-49 -118l-48 -116z" />
<glyph unicode="&#xe7;" horiz-adv-x="1558" d="M90 717q0 322 216 533.5t528 211.5q209 0 380.5 -101t270.5 -276l-170 -43q-74 119 -203 187.5t-278 68.5q-248 0 -410 -161.5t-162 -419.5q0 -256 164 -418t408 -162q164 0 299 81t206 216l166 -45q-86 -186 -258 -297.5t-385 -120.5l-28 -73h6q88 0 146 -51 q60 -52 61 -138q0 -90 -61.5 -141t-158.5 -51h-147l39 98h108q53 0 84 25.5t31 66.5q0 43 -31.5 69.5t-83.5 26.5h-129l62 172q-287 27 -478.5 234t-191.5 508z" />
<glyph unicode="&#xe8;" horiz-adv-x="1288" d="M190 0v1434h957v-158h-789v-442h633v-150h-633v-526h801v-158h-969zM338 1724l63 119l439 -237l-54 -95z" />
<glyph unicode="&#xe9;" horiz-adv-x="1288" d="M190 0v1434h957v-158h-789v-442h633v-150h-633v-526h801v-158h-969zM473 1606l440 237l62 -119l-449 -213z" />
<glyph unicode="&#xea;" horiz-adv-x="1288" d="M190 0v1434h957v-158h-789v-442h633v-150h-633v-526h801v-158h-969zM328 1608l342 288l340 -288l-84 -88l-256 215l-256 -215z" />
<glyph unicode="&#xeb;" horiz-adv-x="1288" d="M190 0v1434h957v-158h-789v-442h633v-150h-633v-526h801v-158h-969zM326 1667q0 41 28.5 69.5t71.5 28.5q41 0 70.5 -28.5t29.5 -69.5q0 -43 -29.5 -71.5t-70.5 -28.5q-43 0 -71.5 28.5t-28.5 71.5zM809 1667q0 41 29.5 69.5t70.5 28.5q43 0 72 -28.5t29 -69.5 q0 -43 -29 -71.5t-72 -28.5q-41 0 -70.5 28.5t-29.5 71.5z" />
<glyph unicode="&#xec;" horiz-adv-x="548" d="M-61 1724l63 119l438 -237l-53 -95zM190 0v1434h168v-1434h-168z" />
<glyph unicode="&#xed;" horiz-adv-x="548" d="M74 1606l440 237l61 -119l-448 -213zM190 0v1434h168v-1434h-168z" />
<glyph unicode="&#xee;" horiz-adv-x="548" d="M-72 1608l342 288l340 -288l-84 -88l-256 215l-256 -215zM190 0v1434h168v-1434h-168z" />
<glyph unicode="&#xef;" horiz-adv-x="548" d="M-74 1667q0 41 29 69.5t72 28.5q41 0 70.5 -28.5t29.5 -69.5q0 -43 -29.5 -71.5t-70.5 -28.5q-43 0 -72 28.5t-29 71.5zM190 0v1434h168v-1434h-168zM410 1667q0 41 29.5 69.5t70.5 28.5q43 0 71.5 -28.5t28.5 -69.5q0 -43 -28.5 -71.5t-71.5 -28.5q-41 0 -70.5 28.5 t-29.5 71.5z" />
<glyph unicode="&#xf0;" horiz-adv-x="1636" d="M90 653v152h111v629h604q313 0 527 -204t214 -521q0 -311 -211 -510t-518 -199h-616v653h-111zM369 158h448q233 0 395 151.5t162 399.5q0 254 -165 410.5t-404 156.5h-436v-471h364v-152h-364v-495z" />
<glyph unicode="&#xf1;" horiz-adv-x="1556" d="M190 0v1434h158l637 -856l101 -138l85 -116l29 -41h2l-2 53q0 53 -1 155.5t-1 188.5v754h168v-1434h-158l-637 858l-106 150l-82 114l-27 37h-2l2 -49q0 -51 1 -155.5t1 -202.5v-752h-168zM410 1573q0 92 63.5 152.5t161.5 60.5q72 0 155.5 -59.5t120.5 -59.5 q43 0 72 27.5t29 68.5h135q2 -92 -61.5 -152.5t-163.5 -60.5q-63 0 -148.5 59.5t-126.5 59.5q-45 0 -73.5 -27.5t-28.5 -68.5h-135z" />
<glyph unicode="&#xf2;" d="M90 716.5q0 321.5 216 533.5t528 212q313 0 529 -212t216 -533.5t-216 -533.5t-529 -212q-311 0 -527.5 212t-216.5 533.5zM262 717q0 -256 163 -419t408.5 -163t408.5 163t163 419q0 258 -163 419.5t-408 161.5q-248 0 -410 -161.5t-162 -419.5zM504 1724l63 119 l439 -237l-54 -95z" />
<glyph unicode="&#xf3;" d="M90 716.5q0 321.5 216 533.5t528 212q313 0 529 -212t216 -533.5t-216 -533.5t-529 -212q-311 0 -527.5 212t-216.5 533.5zM262 717q0 -256 163 -419t408.5 -163t408.5 163t163 419q0 258 -163 419.5t-408 161.5q-248 0 -410 -161.5t-162 -419.5zM639 1606l440 237 l62 -119l-449 -213z" />
<glyph unicode="&#xf4;" d="M90 716.5q0 321.5 216 533.5t528 212q313 0 529 -212t216 -533.5t-216 -533.5t-529 -212q-311 0 -527.5 212t-216.5 533.5zM262 717q0 -256 163 -419t408.5 -163t408.5 163t163 419q0 258 -163 419.5t-408 161.5q-248 0 -410 -161.5t-162 -419.5zM494 1608l342 288 l340 -288l-84 -88l-256 215l-256 -215z" />
<glyph unicode="&#xf5;" d="M90 716.5q0 321.5 216 533.5t528 212q313 0 529 -212t216 -533.5t-216 -533.5t-529 -212q-311 0 -527.5 212t-216.5 533.5zM262 717q0 -256 163 -419t408.5 -163t408.5 163t163 419q0 258 -163 419.5t-408 161.5q-248 0 -410 -161.5t-162 -419.5zM467 1573 q0 92 63.5 152.5t161.5 60.5q72 0 156 -59.5t121 -59.5q43 0 71.5 27.5t28.5 68.5h135q2 -92 -61.5 -152.5t-163.5 -60.5q-63 0 -148.5 59.5t-125.5 59.5q-45 0 -74 -27.5t-29 -68.5h-135z" />
<glyph unicode="&#xf6;" d="M90 716.5q0 321.5 216 533.5t528 212q313 0 529 -212t216 -533.5t-216 -533.5t-529 -212q-311 0 -527.5 212t-216.5 533.5zM262 717q0 -256 163 -419t408.5 -163t408.5 163t163 419q0 258 -163 419.5t-408 161.5q-248 0 -410 -161.5t-162 -419.5zM492 1667 q0 41 28.5 69.5t71.5 28.5q41 0 70.5 -28.5t29.5 -69.5q0 -43 -29.5 -71.5t-70.5 -28.5q-43 0 -71.5 28.5t-28.5 71.5zM975 1667q0 41 29.5 69.5t70.5 28.5q43 0 72 -28.5t29 -69.5q0 -43 -29 -71.5t-72 -28.5q-41 0 -70.5 28.5t-29.5 71.5z" />
<glyph unicode="&#xf7;" horiz-adv-x="1429" d="M233 657v142h949v-142h-949zM600 276q0 43 29.5 73t72.5 30q41 0 71 -31t30 -72q0 -43 -30 -71.5t-71 -28.5q-43 0 -72.5 29.5t-29.5 70.5zM600 1184q0 43 29.5 72.5t72.5 29.5q41 0 71 -30.5t30 -71.5q0 -43 -30 -72t-71 -29q-43 0 -72.5 30t-29.5 71z" />
<glyph unicode="&#xf8;" d="M90 717q0 322 216 533.5t528 211.5q219 0 397 -108l78 102l118 -88l-79 -104q231 -215 231 -547q0 -322 -216 -534t-529 -212q-215 0 -390 105l-75 -101l-119 91l76 100q-236 215 -236 551zM262 717q0 -256 164 -420l704 926q-133 76 -296 75q-248 0 -410 -161.5 t-162 -419.5zM545 207q127 -72 289 -72q246 0 408.5 163t162.5 419q0 252 -158 413z" />
<glyph unicode="&#xf9;" horiz-adv-x="1480" d="M152 594v840h167v-842q0 -465 420 -465q422 0 422 465v842h168v-840q0 -303 -153.5 -464t-436 -161t-435 161t-152.5 464zM410 1724l63 119l438 -237l-53 -95z" />
<glyph unicode="&#xfa;" horiz-adv-x="1480" d="M152 594v840h167v-842q0 -465 420 -465q422 0 422 465v842h168v-840q0 -303 -153.5 -464t-436 -161t-435 161t-152.5 464zM545 1606l440 237l62 -119l-449 -213z" />
<glyph unicode="&#xfb;" horiz-adv-x="1480" d="M152 594v840h167v-842q0 -465 420 -465q422 0 422 465v842h168v-840q0 -303 -153.5 -464t-436 -161t-435 161t-152.5 464zM399 1608l342 288l340 -288l-84 -88l-256 215l-256 -215z" />
<glyph unicode="&#xfc;" horiz-adv-x="1480" d="M152 594v840h167v-842q0 -465 420 -465q422 0 422 465v842h168v-840q0 -303 -153.5 -464t-436 -161t-435 161t-152.5 464zM397 1667q0 41 29 69.5t72 28.5q41 0 70.5 -28.5t29.5 -69.5q0 -43 -29.5 -71.5t-70.5 -28.5q-43 0 -72 28.5t-29 71.5zM881 1667q0 41 29.5 69.5 t70.5 28.5q43 0 71.5 -28.5t28.5 -69.5q0 -43 -28.5 -71.5t-71.5 -28.5q-41 0 -70.5 28.5t-29.5 71.5z" />
<glyph unicode="&#xfd;" horiz-adv-x="1343" d="M33 1434h190l361 -469l37 -49l38 -48l13 -16h2q2 0 86 113l358 469h193l-557 -729v-705h-166v705zM471 1606l440 237l62 -119l-449 -213z" />
<glyph unicode="&#xfe;" horiz-adv-x="1243" d="M190 0v1434h168v-258h310q215 0 350 -127t135 -328t-135 -328t-350 -127h-310v-266h-168zM358 424h314q139 0 224 82t85 215t-85 216q-83 81 -218 81h-6h-314v-594z" />
<glyph unicode="&#xff;" horiz-adv-x="1343" d="M33 1434h190l361 -469l37 -49l38 -48l13 -16h2q2 0 86 113l358 469h193l-557 -729v-705h-166v705zM324 1667q0 41 28.5 69.5t71.5 28.5q41 0 70.5 -28.5t29.5 -69.5q0 -43 -29.5 -71.5t-70.5 -28.5q-43 0 -71.5 28.5t-28.5 71.5zM807 1667q0 41 29.5 69.5t70.5 28.5 q43 0 72 -28.5t29 -69.5q0 -43 -29 -71.5t-72 -28.5q-41 0 -70.5 28.5t-29.5 71.5z" />
<glyph unicode="&#x152;" horiz-adv-x="2052" d="M90 716.5q0 317.5 207 521.5t516 204q90 0 148 -8h952v-158h-789v-442h633v-150h-633v-526h801v-158h-964q-63 -8 -148 -8q-309 0 -516 203.5t-207 521zM262 717q0 -252 153.5 -406.5t397.5 -154.5q86 0 148 24v1073q-61 25 -148 25q-244 0 -397.5 -152.5t-153.5 -408.5z " />
<glyph unicode="&#x153;" horiz-adv-x="2052" d="M90 716.5q0 317.5 207 521.5t516 204q90 0 148 -8h952v-158h-789v-442h633v-150h-633v-526h801v-158h-964q-63 -8 -148 -8q-309 0 -516 203.5t-207 521zM262 717q0 -252 153.5 -406.5t397.5 -154.5q86 0 148 24v1073q-61 25 -148 25q-244 0 -397.5 -152.5t-153.5 -408.5z " />
<glyph unicode="&#x178;" horiz-adv-x="1343" d="M33 1434h190l361 -469l37 -49l38 -48l13 -16h2q2 0 86 113l358 469h193l-557 -729v-705h-166v705zM324 1667q0 41 28.5 69.5t71.5 28.5q41 0 70.5 -28.5t29.5 -69.5q0 -43 -29.5 -71.5t-70.5 -28.5q-43 0 -71.5 28.5t-28.5 71.5zM807 1667q0 41 29.5 69.5t70.5 28.5 q43 0 72 -28.5t29 -69.5q0 -43 -29 -71.5t-72 -28.5q-41 0 -70.5 28.5t-29.5 71.5z" />
<glyph unicode="&#x2c6;" horiz-adv-x="776" d="M35 1608l342 288l340 -288l-84 -88l-256 215l-256 -215z" />
<glyph unicode="&#x2dc;" horiz-adv-x="864" d="M51 1573q0 92 63.5 152.5t161.5 60.5q72 0 156 -59.5t121 -59.5q43 0 71.5 27.5t28.5 68.5h135q2 -92 -61 -152.5t-164 -60.5q-63 0 -148 59.5t-126 59.5q-45 0 -74 -27.5t-29 -68.5h-135z" />
<glyph unicode="&#x2013;" horiz-adv-x="1228" d="M190 647v158h848v-158h-848z" />
<glyph unicode="&#x2014;" horiz-adv-x="2088" d="M190 647v158h1708v-158h-1708z" />
<glyph unicode="&#x2018;" horiz-adv-x="614" d="M190 1135q0 88 46.5 175t113.5 150h74q-47 -43 -81 -110.5t-34 -128.5l-20 -9l20 -2q33 0 61.5 -26.5t28.5 -69.5t-31.5 -71.5t-74.5 -28.5t-73 34t-30 87z" />
<glyph unicode="&#x2019;" horiz-adv-x="614" d="M190 1014q47 43 82 110.5t35 126.5l21 11l-21 2q-35 0 -62.5 26.5t-27.5 69.5t31 71.5t74 28.5t72.5 -33.5t29.5 -87.5q0 -88 -46 -175t-114 -150h-74z" />
<glyph unicode="&#x201a;" horiz-adv-x="614" d="M190 -270q47 43 82 110.5t35 126.5l21 10l-21 3q-35 0 -62.5 26.5t-27.5 69.5t31 71.5t74 28.5t72.5 -33.5t29.5 -87.5q0 -88 -46 -175t-114 -150h-74z" />
<glyph unicode="&#x201c;" horiz-adv-x="991" d="M190 1135q0 88 46.5 175t113.5 150h74q-47 -43 -81 -110.5t-34 -128.5l-20 -9l20 -2q33 0 61.5 -26.5t28.5 -69.5t-31.5 -71.5t-74.5 -28.5t-73 34t-30 87zM567 1135q0 88 46 175t114 150h74q-47 -45 -82 -112.5t-35 -126.5l-20 -9l20 -2q33 0 61.5 -26.5t28.5 -69.5 t-30.5 -71.5t-73.5 -28.5t-73 34t-30 87z" />
<glyph unicode="&#x201d;" horiz-adv-x="991" d="M190 1014q47 43 82 110.5t35 126.5l21 11l-21 2q-35 0 -62.5 26.5t-27.5 69.5t31 71.5t74 28.5t72.5 -33.5t29.5 -87.5q0 -88 -46 -175t-114 -150h-74zM567 1014q47 43 81 110.5t34 126.5l20 11l-20 2q-33 0 -61.5 26.5t-28.5 69.5t31.5 71.5t74.5 28.5t73 -33.5 t30 -87.5q0 -88 -46 -175t-114 -150h-74z" />
<glyph unicode="&#x201e;" horiz-adv-x="962" d="M190 -270q47 45 82 112.5t35 126.5l21 8l-21 3q-35 2 -62.5 27.5t-27.5 68.5t31 72.5t74 29.5t72.5 -33.5t29.5 -89.5q0 -88 -46 -175t-114 -150h-74zM539 -270q47 45 81.5 112.5t34.5 126.5l21 8l-21 3q-35 2 -62.5 27.5t-27.5 68.5t31 72.5t74 29.5t72.5 -33.5 t29.5 -89.5q0 -88 -46 -175t-114 -150h-73z" />
<glyph unicode="&#x2022;" horiz-adv-x="774" d="M190 727q0 82 57.5 138.5t139.5 56.5t138.5 -56.5t56.5 -138.5t-56.5 -139.5t-138.5 -57.5t-139.5 57.5t-57.5 139.5z" />
<glyph unicode="&#x2026;" horiz-adv-x="1499" d="M123 55q0 35 24.5 58.5t59.5 23.5t59.5 -23.5t24.5 -58.5t-24.5 -59.5t-59.5 -24.5t-59.5 24.5t-24.5 59.5zM655 55q0 35 25 58.5t59.5 23.5t59 -23.5t24.5 -58.5t-24.5 -59.5t-59 -24.5t-59.5 24.5t-25 59.5zM1208 55q0 35 24.5 58.5t59.5 23.5t59.5 -23.5t24.5 -58.5 t-24.5 -59.5t-59.5 -24.5t-59.5 24.5t-24.5 59.5z" />
<glyph unicode="&#x2039;" horiz-adv-x="960" d="M190 721l482 -479l98 94l-393 385l391 385l-94 94z" />
<glyph unicode="&#x203a;" horiz-adv-x="960" d="M190 336l394 385l-391 385l94 94l483 -479l-481 -479z" />
<glyph unicode="&#x20ac;" horiz-adv-x="1640" d="M90 553v119h92q-2 14 -2 45q0 29 2 43h-92v117h107q51 258 252.5 419.5t470.5 161.5q207 0 378.5 -100.5t268.5 -274.5l-172 -43q-72 121 -198 187.5t-277 66.5q-201 0 -353.5 -113.5t-201.5 -303.5h577v-117h-596q-2 -14 -2 -43q0 -31 2 -45h596v-119h-577 q51 -186 203.5 -299t351.5 -113q164 0 298 79t203 214l166 -43q-88 -190 -267 -303t-400 -113q-268 0 -469 160t-254 418h-107z" />
<glyph unicode="&#x2122;" horiz-adv-x="1609" d="M45 1325v109h586v-109h-238v-557h-110v557h-238zM754 768v666h104l170 -283q18 -29 33 -57l20 -41l6 -15h3l6 13l21 41q15 29 34 59l170 283h104v-666h-110v270q0 47 3 104.5t5 88.5l2 31h-2l-8 -13l-27 -46l-35 -58l-135 -223h-57l-135 223l-36 59l-26 45l-8 13h-2 l2 -31q2 -31 4 -88.5t2 -104.5v-270h-108z" />
<glyph unicode="&#xe000;" horiz-adv-x="1435" d="M0 1435h1435v-1435h-1435v1435z" />
<glyph unicode="&#xfb01;" horiz-adv-x="1744" d="M1386 0v1434h168v-1434h-168zM190 0v1434h936v-158h-768v-485h613v-152h-613v-639h-168z" />
<glyph unicode="&#xfb02;" horiz-adv-x="2363" d="M1386 0v1434h168v-1276h768v-158h-936zM190 0v1434h936v-158h-768v-485h613v-152h-613v-639h-168z" />
<glyph unicode="&#xfb03;" horiz-adv-x="2940" d="M2582 0v1434h168v-1434h-168zM1386 0v1434h936v-158h-768v-485h613v-152h-613v-639h-168zM190 0v1434h936v-158h-768v-485h613v-152h-613v-639h-168z" />
<glyph unicode="&#xfb04;" horiz-adv-x="3559" d="M2582 0v1434h168v-1276h768v-158h-936zM1386 0v1434h936v-158h-768v-485h613v-152h-613v-639h-168zM190 0v1434h936v-158h-768v-485h613v-152h-613v-639h-168z" />
</font>
</defs>
</svg>
